<svg width="510" height="186" viewBox="0 0 510 186" fill="none" xmlns="http://www.w3.org/2000/svg">
<g clip-path="url(#clip0)">
<path d="M-0.242065 1.07568H48.9125V15.8113H18.043V33.6661H46.7613V47.4337H18.043V79.5937H-0.242065V1.07568Z" fill="#171717"/>
<path d="M82.2979 50.5528V79.5936H64.3354V1.61339C72.2229 0.537795 80.8279 0 90.15 0C100.906 0 108.901 2.04362 114.135 6.13086C119.441 10.1464 122.095 15.8829 122.095 23.3404C122.095 28.1446 120.696 32.4829 117.9 36.355C115.104 40.1554 111.411 42.8802 106.821 44.5295V44.7446C110.55 46.8241 113.598 51.0906 115.964 57.5441L124.246 79.5936H105.423L98.0015 58.2971C96.9979 55.2854 95.7786 53.2418 94.3443 52.1661C92.91 51.0906 90.6872 50.5528 87.6757 50.5528H82.2979ZM82.2979 37.1079H88.3215C93.3407 37.1079 97.1772 36.0681 99.83 33.9886C102.483 31.8375 103.81 28.8617 103.81 25.0613C103.81 17.6039 98.8979 13.8751 89.0743 13.8751C86.4929 13.8751 84.2336 14.0902 82.2979 14.5205V37.1079Z" fill="#171717"/>
<path d="M154.571 15.8113V31.8376H184.366V45.7128H154.571V64.8583H186.516V79.5937H136.286V1.07568H186.516V15.8113H154.571Z" fill="#171717"/>
<path d="M220.116 15.8113V31.8376H249.909V45.7128H220.116V64.8583H252.061V79.5937H201.831V1.07568H252.061V15.8113H220.116Z" fill="#171717"/>
<path d="M331.587 39.2591C331.587 52.453 327.93 62.6712 320.616 69.9134C313.374 77.0843 303.156 80.6693 289.961 80.6693C282.002 80.6693 274.473 80.1314 267.374 79.0557V1.61339C274.473 0.537795 282.002 0 289.961 0C303.156 0 313.374 3.47774 320.616 10.4332C327.93 17.317 331.587 26.9256 331.587 39.2591ZM314.163 39.2591C314.163 22.6233 306.561 14.3054 291.36 14.3054C289.281 14.3054 287.273 14.5205 285.336 14.9507V65.7187C287.273 66.1489 289.281 66.364 291.36 66.364C306.561 66.364 314.163 57.329 314.163 39.2591Z" fill="#171717"/>
<path d="M350.073 10.8635C357.315 3.62116 366.996 0 379.114 0C391.232 0 400.876 3.62116 408.047 10.8635C415.289 18.1058 418.911 27.9295 418.911 40.3346C418.911 52.7398 415.289 62.5636 408.047 69.8059C400.876 77.0479 391.232 80.6693 379.114 80.6693C366.996 80.6693 357.315 77.0479 350.073 69.8059C342.902 62.5636 339.317 52.7398 339.317 40.3346C339.317 27.9295 342.902 18.1058 350.073 10.8635ZM363.518 59.1575C367.246 63.4599 372.445 65.6111 379.114 65.6111C385.783 65.6111 390.946 63.4599 394.602 59.1575C398.331 54.8552 400.196 48.5809 400.196 40.3346C400.196 32.0885 398.331 25.8142 394.602 21.5118C390.946 17.2094 385.783 15.0583 379.114 15.0583C372.445 15.0583 367.246 17.2094 363.518 21.5118C359.861 25.8142 358.032 32.0885 358.032 40.3346C358.032 48.5809 359.861 54.8552 363.518 59.1575Z" fill="#171717"/>
<path d="M492.24 31.5149H492.025L478.257 61.6315H461.694L447.926 31.5149H447.711V79.5937H430.394V1.07568H449.109L469.868 47.3261H470.083L490.841 1.07568H509.987V79.5937H492.24V31.5149Z" fill="#171717"/>
<path d="M10 160V185.716L0 185.714V117.555C6.51282 116.616 12.6871 116.204 19.9514 116.204C28.5934 116.204 35.1376 118.051 39.5838 121.746C44.0301 125.378 46.2532 130.576 46.2532 137.339C46.2532 152.682 37.4859 160.353 19.9514 160.353C16.6324 160.353 13.5695 160.313 10 160ZM9.61857 151.523C12.7497 152.024 15.8809 152.275 19.0121 152.275C24.5229 152.275 28.75 151.085 31.6933 148.706C34.6366 146.263 36.1082 142.788 36.1082 138.278C36.1082 133.77 34.6679 130.357 31.7872 128.04C28.9066 125.66 24.6481 124.47 19.0121 124.47C15.4425 124.47 12.3114 124.689 9.61857 125.128V151.523Z" fill="#171717"/>
<path d="M69 157.535V185.716H59V118C64.8866 117.06 70.1986 116.204 76.8364 116.204C85.8543 116.204 92.6493 117.863 97.2207 121.183C101.792 124.501 104.078 129.104 104.078 134.991C104.078 139.75 102.856 143.821 100.414 147.202C97.9721 150.584 94.6528 152.901 90.4571 154.153V154.341C93.15 155.97 95.655 159.696 97.9721 165.52L105.956 185.716H95.2478L87.4514 165.52C86.1364 162.138 84.665 159.978 83.0364 159.038C81.4707 158.036 78.465 157.535 74.0186 157.535H69ZM69 149.457H74.0186C87.295 149.457 93.9328 144.948 93.9328 135.93C93.9328 132.11 92.4929 129.261 89.6121 127.382C86.7936 125.441 82.2221 124.47 75.8971 124.47C73.0793 124.47 71.1919 124.775 69 125.213V149.457Z" fill="#171717"/>
<path d="M139.28 185.716L164.924 117.144H170.561L196.299 185.716H191.226L183.336 164.017H152.055L144.165 185.716H139.28ZM153.559 160.071H181.926L167.836 121.276H167.649L153.559 160.071Z" fill="#171717"/>
<path d="M235.971 119.529C226.578 119.529 219.189 122.316 213.803 127.89C208.48 133.463 205.819 141.072 205.819 150.715C205.819 160.297 208.542 167.906 213.991 173.542C219.439 179.115 226.86 181.902 236.254 181.902C243.204 181.902 249.373 180.681 254.759 178.239V149.776H228.739V145.831H259.267V180.869C252.441 184.25 244.676 185.941 235.971 185.941C225.388 185.941 216.903 182.747 210.515 176.36C204.19 169.972 201.028 161.424 201.028 150.715C201.028 140.007 204.128 131.459 210.327 125.071C216.589 118.684 225.012 115.49 235.596 115.49C243.674 115.49 250.751 117.369 256.825 121.126L255.04 124.695C249.341 121.251 242.985 119.529 235.971 119.529Z" fill="#171717"/>
<path d="M279.577 121.183V146.545H311.797V150.49H279.577V181.676H313.676V185.716H274.881V117.144H313.676V121.183H279.577Z" fill="#171717"/>
<path d="M329.279 185.716V117.144H334.633L373.897 178.576H374.085V117.144H378.782V185.716H373.334L334.069 124.282H333.881V185.716H329.279Z" fill="#171717"/>
<path d="M424.916 119.529C416.024 119.529 408.947 122.347 403.686 127.983C398.489 133.62 395.89 141.197 395.89 150.715C395.89 160.172 398.551 167.749 403.874 173.448C409.197 179.084 416.211 181.902 424.916 181.902C431.741 181.902 438.035 180.023 443.796 176.266L445.581 179.93C439.632 183.937 432.65 185.941 424.634 185.941C414.489 185.941 406.348 182.747 400.211 176.36C394.136 169.972 391.099 161.424 391.099 150.715C391.099 139.882 394.105 131.302 400.117 124.977C406.191 118.652 414.364 115.49 424.634 115.49C432.65 115.49 439.632 117.494 445.581 121.502L443.796 125.165C438.161 121.408 431.867 119.529 424.916 119.529Z" fill="#171717"/>
<path d="M457.806 117.144L479.974 151.711H480.162L502.236 117.144H507.685L482.416 155.844V185.716H477.532V155.844L452.264 117.144H457.806Z" fill="#171717"/>
</g>
<defs>
<clipPath id="clip0">
<rect width="510" height="185.714" fill="white"/>
</clipPath>
</defs>
</svg>
