<svg width="350" height="128" viewBox="0 0 350 128" fill="none" xmlns="http://www.w3.org/2000/svg">
<g clip-path="url(#clip0)">
<path d="M-0.166138 0.738281H33.5674V10.851H12.3824V23.1042H32.0911V32.5526H12.3824V54.6232H-0.166138V0.738281Z" fill="#171717"/>
<path d="M56.4789 34.6931V54.623H44.1517V1.10723C49.5647 0.369075 55.4701 0 61.8676 0C69.249 0 74.7358 1.40249 78.3279 4.20746C81.9696 6.96324 83.7907 10.9 83.7907 16.0179C83.7907 19.315 82.8309 22.2922 80.9117 24.9495C78.9926 27.5577 76.4583 29.4276 73.3088 30.5595V30.7071C75.8676 32.1342 77.9593 35.0622 79.5828 39.4911L85.2667 54.623H72.349L67.2559 40.0078C66.5671 37.9409 65.7304 36.5385 64.7461 35.8003C63.7617 35.0622 62.2363 34.6931 60.1696 34.6931H56.4789ZM56.4789 25.4662H60.6127C64.0573 25.4662 66.6902 24.7526 68.5108 23.3255C70.3313 21.8493 71.2421 19.8071 71.2421 17.1989C71.2421 12.0811 67.8711 9.52216 61.1294 9.52216C59.3578 9.52216 57.8073 9.66976 56.4789 9.96505V25.4662Z" fill="#171717"/>
<path d="M106.078 10.851V21.8494H126.526V31.3716H106.078V44.5106H128.001V54.6232H93.5299V0.738281H128.001V10.851H106.078Z" fill="#171717"/>
<path d="M151.06 10.851V21.8494H171.506V31.3716H151.06V44.5106H172.983V54.6232H138.511V0.738281H172.983V10.851H151.06Z" fill="#171717"/>
<path d="M227.56 26.9425C227.56 35.9972 225.05 43.0096 220.03 47.9798C215.06 52.901 208.048 55.3613 198.993 55.3613C193.531 55.3613 188.364 54.9922 183.492 54.2539V1.10723C188.364 0.369075 193.531 0 198.993 0C208.048 0 215.06 2.38669 220.03 7.16005C225.05 11.8842 227.56 18.4784 227.56 26.9425ZM215.602 26.9425C215.602 15.5258 210.385 9.8174 199.953 9.8174C198.526 9.8174 197.148 9.96505 195.819 10.2603V45.101C197.148 45.3963 198.526 45.5439 199.953 45.5439C210.385 45.5439 215.602 39.3434 215.602 26.9425Z" fill="#171717"/>
<path d="M240.246 7.45535C245.216 2.48511 251.86 0 260.176 0C268.493 0 275.111 2.48511 280.032 7.45535C285.002 12.4255 287.488 19.1673 287.488 27.6806C287.488 36.194 285.002 42.9358 280.032 47.906C275.111 52.876 268.493 55.3613 260.176 55.3613C251.86 55.3613 245.216 52.876 240.246 47.906C235.325 42.9358 232.865 36.194 232.865 27.6806C232.865 19.1673 235.325 12.4255 240.246 7.45535ZM249.473 40.5983C252.032 43.5509 255.599 45.0272 260.176 45.0272C264.753 45.0272 268.296 43.5509 270.805 40.5983C273.365 37.6457 274.644 33.3398 274.644 27.6806C274.644 22.0215 273.365 17.7156 270.805 14.763C268.296 11.8104 264.753 10.3341 260.176 10.3341C255.599 10.3341 252.032 11.8104 249.473 14.763C246.963 17.7156 245.708 22.0215 245.708 27.6806C245.708 33.3398 246.963 37.6457 249.473 40.5983Z" fill="#171717"/>
<path d="M337.812 21.6279H337.664L328.216 42.2962H316.849L307.4 21.6279H307.252V54.6232H295.368V0.738281H308.212L322.458 32.4788H322.606L336.852 0.738281H349.991V54.6232H337.812V21.6279Z" fill="#171717"/>
<path d="M7 110.046V127.703H0V80.9272C4.46958 80.2826 8.70681 80 13.6922 80C19.6229 80 24.114 81.2677 27.1653 83.8034C30.2167 86.2961 31.7424 89.8628 31.7424 94.5044C31.7424 105.034 25.7256 110.299 13.6922 110.299C11.4144 110.299 9.44966 110.261 7 110.046ZM6.60098 104.239C8.7498 104.582 10.8986 104.754 13.0475 104.754C16.8295 104.754 19.7304 103.938 21.7503 102.305C23.7702 100.628 24.7801 98.2436 24.7801 95.149C24.7801 92.0549 23.7917 89.7128 21.8148 88.1226C19.8378 86.4892 16.9154 85.6726 13.0475 85.6726C10.5978 85.6726 8.44897 85.823 6.60098 86.124V104.239Z" fill="#171717"/>
<path d="M47 108.364V127.752H40V81.252C44.0398 80.6073 48.1756 80 52.7309 80C58.9196 80 63.5829 81.1387 66.7201 83.4167C69.8574 85.6941 71.426 88.853 71.426 92.8927C71.426 96.1588 70.5878 98.9525 68.9118 101.273C67.2358 103.594 64.9579 105.184 62.0785 106.044V106.173C63.9265 107.29 65.6456 109.847 67.2358 113.844L72.7152 127.704H65.3662L60.0157 113.844C59.1133 111.523 58.1035 110.041 56.9858 109.396C55.9113 108.708 53.8486 108.364 50.7971 108.364H47ZM47 102.752L50.7971 102.821C59.9084 102.821 64.4638 99.726 64.4638 93.5373C64.4638 90.9157 63.4755 88.9603 61.4986 87.6711C59.5642 86.3387 56.427 85.6726 52.0863 85.6726C50.1525 85.6726 48.5042 85.951 47 86.252V102.752Z" fill="#171717"/>
<path d="M95.5842 127.452L113.183 80.3926H117.051L134.715 127.452H131.234L125.819 112.561H104.351L98.9367 127.452H95.5842ZM105.383 109.853H124.851L115.182 83.2288H115.053L105.383 109.853Z" fill="#171717"/>
<path d="M161.941 82.0294C155.495 82.0294 150.424 83.9421 146.727 87.7671C143.075 91.5921 141.248 96.8137 141.248 103.432C141.248 110.007 143.117 115.229 146.856 119.097C150.596 122.922 155.688 124.834 162.135 124.834C166.905 124.834 171.138 123.997 174.834 122.321V102.787H156.977V100.08H177.928V124.125C173.244 126.446 167.915 127.606 161.941 127.606C154.678 127.606 148.855 125.415 144.471 121.031C140.13 116.648 137.96 110.781 137.96 103.432C137.96 96.0828 140.088 90.2166 144.342 85.8328C148.64 81.4495 154.42 79.2578 161.683 79.2578C167.228 79.2578 172.084 80.547 176.252 83.1255L175.028 85.575C171.117 83.2112 166.754 82.0294 161.941 82.0294Z" fill="#171717"/>
<path d="M191.867 83.1646V100.57H213.978V103.277H191.867V124.68H215.268V127.452H188.644V80.3926H215.268V83.1646H191.867Z" fill="#171717"/>
<path d="M225.975 127.452V80.3926H229.65L256.596 122.552H256.725V80.3926H259.949V127.452H256.209L229.263 85.2916H229.134V127.452H225.975Z" fill="#171717"/>
<path d="M291.609 82.0294C285.506 82.0294 280.65 83.9637 277.04 87.8313C273.473 91.6995 271.689 96.8995 271.689 103.432C271.689 109.922 273.516 115.122 277.169 119.033C280.822 122.9 285.635 124.834 291.609 124.834C296.293 124.834 300.612 123.545 304.566 120.967L305.791 123.481C301.708 126.231 296.917 127.606 291.416 127.606C284.453 127.606 278.866 125.415 274.654 121.031C270.486 116.648 268.401 110.781 268.401 103.432C268.401 95.997 270.464 90.1093 274.59 85.7686C278.759 81.4279 284.367 79.2578 291.416 79.2578C296.917 79.2578 301.708 80.6328 305.791 83.3833L304.566 85.8975C300.699 83.3191 296.379 82.0294 291.609 82.0294Z" fill="#171717"/>
<path d="M314.18 80.3926L329.394 104.116H329.523L344.672 80.3926H348.411L331.07 106.952V127.452H327.718V106.952L310.377 80.3926H314.18Z" fill="#171717"/>
</g>
<defs>
<clipPath id="clip0">
<rect width="350" height="127.451" fill="white"/>
</clipPath>
</defs>
</svg>
