<svg width="714" height="260" viewBox="0 0 714 260" fill="none" xmlns="http://www.w3.org/2000/svg">
<path d="M0.661133 1.50583H69.4775V22.1357H26.2602V47.1324H66.4658V66.407H26.2602V111.431H0.661133V1.50583Z" fill="#171717"/>
<path d="M115.217 70.7739V111.431H90.0696V2.25874C101.112 0.752913 113.159 0 126.21 0C141.268 0 152.461 2.86107 159.789 8.58321C167.218 14.205 170.933 22.2361 170.933 32.6765C170.933 39.4025 168.975 45.476 165.06 50.897C161.145 56.2176 155.975 60.0323 149.55 62.3413V62.6424C154.77 65.5537 159.037 71.5268 162.349 80.5618L173.944 111.431H147.592L137.202 81.6159C135.797 77.3995 134.09 74.5385 132.082 73.0326C130.074 71.5268 126.962 70.7739 122.746 70.7739H115.217ZM115.217 51.9511H123.65C130.677 51.9511 136.048 50.4954 139.762 47.5841C143.476 44.5725 145.334 40.4064 145.334 35.0858C145.334 24.6454 138.457 19.4252 124.704 19.4252C121.09 19.4252 117.927 19.7263 115.217 20.3287V51.9511Z" fill="#171717"/>
<path d="M216.4 22.1357V44.5725H258.112V63.9977H216.4V90.8014H261.123V111.431H190.801V1.50583H261.123V22.1357H216.4Z" fill="#171717"/>
<path d="M308.162 22.1357V44.5725H349.873V63.9977H308.162V90.8014H352.885V111.431H282.563V1.50583H352.885V22.1357H308.162Z" fill="#171717"/>
<path d="M464.222 54.9627C464.222 73.4342 459.102 87.7396 448.862 97.8788C438.723 107.918 424.418 112.937 405.946 112.937C394.803 112.937 384.262 112.184 374.324 110.678V2.25874C384.262 0.752913 394.803 0 405.946 0C424.418 0 438.723 4.86884 448.862 14.6065C459.102 24.2438 464.222 37.6959 464.222 54.9627ZM439.828 54.9627C439.828 31.6726 429.186 20.0275 407.904 20.0275C404.993 20.0275 402.182 20.3287 399.471 20.931V92.0061C402.182 92.6084 404.993 92.9096 407.904 92.9096C429.186 92.9096 439.828 80.2606 439.828 54.9627Z" fill="#171717"/>
<path d="M490.102 15.2089C500.241 5.06962 513.794 0 530.759 0C547.725 0 561.227 5.06962 571.266 15.2089C581.405 25.3481 586.475 39.1013 586.475 56.4685C586.475 73.8357 581.405 87.589 571.266 97.7282C561.227 107.867 547.725 112.937 530.759 112.937C513.794 112.937 500.241 107.867 490.102 97.7282C480.063 87.589 475.044 73.8357 475.044 56.4685C475.044 39.1013 480.063 25.3481 490.102 15.2089ZM508.925 82.8205C514.145 88.8438 521.423 91.8555 530.759 91.8555C540.096 91.8555 547.324 88.8438 552.443 82.8205C557.664 76.7972 560.274 68.0132 560.274 56.4685C560.274 44.9239 557.664 36.1399 552.443 30.1165C547.324 24.0932 540.096 21.0816 530.759 21.0816C521.423 21.0816 514.145 24.0932 508.925 30.1165C503.805 36.1399 501.245 44.9239 501.245 56.4685C501.245 68.0132 503.805 76.7972 508.925 82.8205Z" fill="#171717"/>
<path d="M689.136 44.1207H688.835L669.56 86.2839H646.371L627.096 44.1207H626.795V111.431H602.551V1.50583H628.752L657.815 66.2564H658.116L687.178 1.50583H713.982V111.431H689.136V44.1207Z" fill="#171717"/>
<path d="M15 223V259.002H0V163.658C9.11795 162.343 18.7619 161.686 28.932 161.686C41.0308 161.686 50.1926 164.272 56.4173 169.445C62.6421 174.53 65.7545 181.806 65.7545 191.275C65.7545 212.755 53.4803 223.495 28.932 223.495C24.2853 223.495 19.9973 223.438 15 223ZM14.466 211.133C18.8496 211.834 23.2332 212.185 27.6169 212.185C35.3321 212.185 41.25 210.519 45.3706 207.188C49.4912 203.768 51.5515 198.903 51.5515 192.59C51.5515 186.278 49.535 181.5 45.5021 178.256C41.4692 174.924 35.5074 173.258 27.6169 173.258C22.6195 173.258 18.2359 173.565 14.466 174.179V211.133Z" fill="#171717"/>
<path d="M96 219.549V259.002H81V163.817C89.2412 162.502 98.2781 161.686 107.571 161.686C120.196 161.686 129.709 164.009 136.109 168.656C142.509 173.302 145.709 179.746 145.709 187.987C145.709 194.65 143.999 200.349 140.58 205.083C137.161 209.818 132.514 213.062 126.64 214.815V215.078C130.41 217.358 133.917 222.574 137.161 230.728L148.339 259.002H133.347L122.432 230.728C120.591 225.993 118.531 222.969 116.251 221.654C114.059 220.251 109.851 219.549 103.626 219.549H96ZM95.7356 208.24H103.626C122.213 208.24 131.506 201.927 131.506 189.302C131.506 183.954 129.49 179.965 125.457 177.335C121.511 174.617 115.111 173.258 106.256 173.258C102.311 173.258 98.8042 173.565 95.7356 174.179V208.24Z" fill="#171717"/>
<path d="M194.992 259.002L230.894 163.001H238.785L274.818 259.002H267.717L256.67 228.624H212.877L201.831 259.002H194.992ZM214.982 223.1H254.697L234.971 168.787H234.708L214.982 223.1Z" fill="#171717"/>
<path d="M330.36 166.34C317.209 166.34 306.864 170.242 299.324 178.045C291.872 185.848 288.146 196.5 288.146 210.001C288.146 223.415 291.959 234.068 299.587 241.958C307.215 249.761 317.604 253.662 330.755 253.662C340.486 253.662 349.122 251.953 356.662 248.534V208.686H320.234V203.163H362.974V252.216C353.418 256.95 342.547 259.317 330.36 259.317C315.543 259.317 303.664 254.846 294.721 245.903C285.866 236.961 281.439 224.993 281.439 210.001C281.439 195.009 285.779 183.042 294.458 174.099C303.225 165.157 315.017 160.686 329.834 160.686C341.144 160.686 351.051 163.316 359.555 168.576L357.056 173.573C349.078 168.751 340.179 166.34 330.36 166.34Z" fill="#171717"/>
<path d="M391.408 168.656V204.163H436.516V209.686H391.408V253.347H439.146V259.002H384.833V163.001H439.146V168.656H391.408Z" fill="#171717"/>
<path d="M460.99 259.002V163.001H468.486L523.456 249.007H523.719V163.001H530.295V259.002H522.667L467.696 172.995H467.433V259.002H460.99Z" fill="#171717"/>
<path d="M594.882 166.34C582.433 166.34 572.526 170.286 565.161 178.176C557.884 186.067 554.246 196.675 554.246 210.001C554.246 223.24 557.972 233.848 565.424 241.827C572.876 249.717 582.696 253.662 594.882 253.662C604.438 253.662 613.249 251.032 621.315 245.772L623.814 250.901C615.485 256.512 605.71 259.317 594.488 259.317C580.285 259.317 568.887 254.846 560.295 245.903C551.791 236.961 547.539 224.993 547.539 210.001C547.539 194.834 551.747 182.823 560.164 173.968C568.668 165.113 580.109 160.686 594.488 160.686C605.71 160.686 615.485 163.491 623.814 169.102L621.315 174.231C613.425 168.971 604.614 166.34 594.882 166.34Z" fill="#171717"/>
<path d="M640.928 163.001L671.964 211.396H672.227L703.131 163.001H710.759L675.383 217.182V259.002H668.545V217.182L633.169 163.001H640.928Z" fill="#171717"/>
</svg>
