<svg width="712" height="260" viewBox="0 0 712 260" fill="none" xmlns="http://www.w3.org/2000/svg">
<path d="M1.40039 1.5H69.9504V22.05H26.9004V46.95H66.9504V66.15H26.9004V111H1.40039V1.5Z" fill="#171717"/>
<path d="M115.513 70.5V111H90.4629V2.25C101.463 0.749999 113.463 0 126.463 0C141.463 0 152.613 2.85 159.913 8.55C167.313 14.15 171.013 22.15 171.013 32.55C171.013 39.25 169.063 45.3 165.163 50.7C161.263 56 156.113 59.8 149.713 62.1V62.4C154.913 65.3 159.163 71.25 162.463 80.25L174.013 111H147.763L137.413 81.3C136.013 77.1 134.313 74.25 132.313 72.75C130.313 71.25 127.213 70.5 123.013 70.5H115.513ZM115.513 51.75H123.913C130.913 51.75 136.263 50.3 139.963 47.4C143.663 44.4 145.513 40.25 145.513 34.95C145.513 24.55 138.663 19.35 124.963 19.35C121.363 19.35 118.213 19.65 115.513 20.25V51.75Z" fill="#171717"/>
<path d="M216.305 22.05V44.4H257.855V63.75H216.305V90.45H260.855V111H190.805V1.5H260.855V22.05H216.305Z" fill="#171717"/>
<path d="M307.711 22.05V44.4H349.261V63.75H307.711V90.45H352.261V111H282.211V1.5H352.261V22.05H307.711Z" fill="#171717"/>
<path d="M463.167 54.75C463.167 73.15 458.067 87.4 447.867 97.5C437.767 107.5 423.517 112.5 405.117 112.5C394.017 112.5 383.517 111.75 373.617 110.25V2.25C383.517 0.749999 394.017 0 405.117 0C423.517 0 437.767 4.85 447.867 14.55C458.067 24.15 463.167 37.55 463.167 54.75ZM438.867 54.75C438.867 31.55 428.267 19.95 407.067 19.95C404.167 19.95 401.367 20.25 398.667 20.85V91.65C401.367 92.25 404.167 92.55 407.067 92.55C428.267 92.55 438.867 79.95 438.867 54.75Z" fill="#171717"/>
<path d="M488.947 15.15C499.047 5.05 512.547 0 529.447 0C546.347 0 559.797 5.05 569.797 15.15C579.897 25.25 584.947 38.95 584.947 56.25C584.947 73.55 579.897 87.25 569.797 97.35C559.797 107.45 546.347 112.5 529.447 112.5C512.547 112.5 499.047 107.45 488.947 97.35C478.947 87.25 473.947 73.55 473.947 56.25C473.947 38.95 478.947 25.25 488.947 15.15ZM507.697 82.5C512.897 88.5 520.147 91.5 529.447 91.5C538.747 91.5 545.947 88.5 551.047 82.5C556.247 76.5 558.847 67.75 558.847 56.25C558.847 44.75 556.247 36 551.047 30C545.947 24 538.747 21 529.447 21C520.147 21 512.897 24 507.697 30C502.597 36 500.047 44.75 500.047 56.25C500.047 67.75 502.597 76.5 507.697 82.5Z" fill="#171717"/>
<path d="M687.211 43.95H686.911L667.711 85.95H644.611L625.411 43.95H625.111V111H600.961V1.5H627.061L656.011 66H656.311L685.261 1.5H711.961V111H687.211V43.95Z" fill="#171717"/>
<path d="M15.1522 221.975V258H0.742188V163.025C9.82485 161.715 19.4315 161.06 29.5622 161.06C41.6142 161.06 50.7405 163.636 56.9412 168.789C63.1419 173.854 66.2422 181.103 66.2422 190.535C66.2422 211.932 54.0155 222.63 29.5622 222.63C24.9335 222.63 20.1302 222.412 15.1522 221.975ZM15.1522 210.316C19.5189 211.015 23.8855 211.364 28.2522 211.364C35.9375 211.364 41.8325 209.705 45.9372 206.386C50.0419 202.98 52.0942 198.133 52.0942 191.845C52.0942 185.557 50.0855 180.797 46.0682 177.566C42.0509 174.247 36.1122 172.588 28.2522 172.588C23.2742 172.588 18.9075 172.894 15.1522 173.505V210.316Z" fill="#171717"/>
<path d="M95.62 218.7V258H81.21V163.025C89.4193 161.715 98.1526 161.06 107.41 161.06C119.986 161.06 129.462 163.374 135.837 168.003C142.212 172.632 145.4 179.051 145.4 187.26C145.4 193.897 143.697 199.574 140.291 204.29C136.885 209.006 132.256 212.237 126.405 213.984V214.246C130.16 216.517 133.654 221.713 136.885 229.835L148.02 258H133.086L122.213 229.835C120.379 225.119 118.327 222.106 116.056 220.796C113.873 219.399 109.681 218.7 103.48 218.7H95.62ZM95.62 207.434H103.48C121.995 207.434 131.252 201.146 131.252 188.57C131.252 183.243 129.243 179.269 125.226 176.649C121.296 173.942 114.921 172.588 106.1 172.588C102.17 172.588 98.6766 172.894 95.62 173.505V207.434Z" fill="#171717"/>
<path d="M194.979 258L230.742 162.37H238.602L274.496 258H267.422L256.418 227.739H212.795L201.791 258H194.979ZM214.891 222.237H254.453L234.803 168.134H234.541L214.891 222.237Z" fill="#171717"/>
<path d="M329.823 166.693C316.723 166.693 306.417 170.579 298.907 178.352C291.483 186.125 287.772 196.736 287.772 210.185C287.772 223.547 291.571 234.158 299.169 242.018C306.767 249.791 317.116 253.677 330.216 253.677C339.91 253.677 348.512 251.974 356.023 248.568V208.875H319.736V203.373H362.311V252.236C352.791 256.952 341.962 259.31 329.823 259.31C315.063 259.31 303.23 254.856 294.322 245.948C285.501 237.04 281.091 225.119 281.091 210.185C281.091 195.251 285.414 183.33 294.06 174.422C302.793 165.514 314.539 161.06 329.299 161.06C340.565 161.06 350.433 163.68 358.905 168.92L356.416 173.898C348.468 169.095 339.604 166.693 329.823 166.693Z" fill="#171717"/>
<path d="M390.634 168.003V203.373H435.567V208.875H390.634V252.367H438.187V258H384.084V162.37H438.187V168.003H390.634Z" fill="#171717"/>
<path d="M459.946 258V162.37H467.413L522.171 248.044H522.433V162.37H528.983V258H521.385L466.627 172.326H466.365V258H459.946Z" fill="#171717"/>
<path d="M593.321 166.693C580.92 166.693 571.051 170.623 563.715 178.483C556.466 186.343 552.842 196.91 552.842 210.185C552.842 223.372 556.554 233.94 563.977 241.887C571.4 249.747 581.182 253.677 593.321 253.677C602.84 253.677 611.617 251.057 619.652 245.817L622.141 250.926C613.844 256.515 604.107 259.31 592.928 259.31C578.78 259.31 567.427 254.856 558.868 245.948C550.397 237.04 546.161 225.119 546.161 210.185C546.161 195.076 550.353 183.112 558.737 174.291C567.208 165.47 578.605 161.06 592.928 161.06C604.107 161.06 613.844 163.855 622.141 169.444L619.652 174.553C611.792 169.313 603.015 166.693 593.321 166.693Z" fill="#171717"/>
<path d="M639.188 162.37L670.104 210.578H670.366L701.151 162.37H708.749L673.51 216.342V258H666.698V216.342L631.459 162.37H639.188Z" fill="#171717"/>
</svg>
