<svg width="35" height="851" viewBox="0 0 35 851" fill="none" xmlns="http://www.w3.org/2000/svg">
<path d="M17.0001 355L17 851" stroke="black" stroke-width="2"/>
<path d="M17 0L17 54" stroke="black" stroke-width="2"/>
<rect x="1.5" y="73.5" width="32" height="32" rx="16" stroke="#379C26" stroke-width="3"/>
<path d="M21 330.968L21 332.904L9.8 328.168L9.8 326.168L21 321.448L21 323.368L18.584 324.36L18.584 329.976L21 330.968ZM12.2 327.384L16.984 329.352L16.984 325L12.2 326.968C11.9653 327.053 11.7573 327.123 11.576 327.176C11.7573 327.229 11.9653 327.299 12.2 327.384ZM15.4 320.687C14.6213 320.687 14.0453 320.394 13.672 319.807C13.2987 319.21 13.112 318.485 13.112 317.631C13.112 316.639 13.3307 315.717 13.768 314.863L15.272 314.863C15.0587 315.183 14.8827 315.594 14.744 316.095C14.5947 316.597 14.52 317.071 14.52 317.519C14.52 317.914 14.5893 318.25 14.728 318.527C14.856 318.805 15.064 318.943 15.352 318.943C15.6187 318.943 15.8427 318.783 16.024 318.463C16.1947 318.143 16.344 317.759 16.472 317.311C16.5893 316.853 16.7333 316.399 16.904 315.951C17.064 315.503 17.3147 315.119 17.656 314.799C17.9973 314.479 18.4293 314.319 18.952 314.319C19.7413 314.319 20.3173 314.629 20.68 315.247C21.032 315.866 21.208 316.661 21.208 317.631C21.208 318.837 20.9627 319.839 20.472 320.639L18.952 320.639C19.496 319.818 19.768 318.842 19.768 317.711C19.768 316.602 19.5067 316.047 18.984 316.047C18.728 316.047 18.5147 316.207 18.344 316.527C18.1627 316.847 18.0133 317.237 17.896 317.695C17.768 318.143 17.624 318.597 17.464 319.055C17.2933 319.503 17.0373 319.887 16.696 320.207C16.344 320.527 15.912 320.687 15.4 320.687ZM15.4 313.172C14.6213 313.172 14.0453 312.878 13.672 312.292C13.2987 311.694 13.112 310.969 13.112 310.116C13.112 309.124 13.3307 308.201 13.768 307.348L15.272 307.348C15.0587 307.668 14.8827 308.078 14.744 308.58C14.5947 309.081 14.52 309.556 14.52 310.004C14.52 310.398 14.5893 310.734 14.728 311.012C14.856 311.289 15.064 311.428 15.352 311.428C15.6187 311.428 15.8427 311.268 16.024 310.948C16.1947 310.628 16.344 310.244 16.472 309.796C16.5893 309.337 16.7333 308.884 16.904 308.436C17.064 307.988 17.3147 307.604 17.656 307.284C17.9973 306.964 18.4293 306.804 18.952 306.804C19.7413 306.804 20.3173 307.113 20.68 307.732C21.032 308.35 21.208 309.145 21.208 310.116C21.208 311.321 20.9627 312.324 20.472 313.124L18.952 313.124C19.496 312.302 19.768 311.326 19.768 310.196C19.768 309.086 19.5067 308.532 18.984 308.532C18.728 308.532 18.5147 308.692 18.344 309.012C18.1627 309.332 18.0133 309.721 17.896 310.18C17.768 310.628 17.624 311.081 17.464 311.54C17.2933 311.988 17.0373 312.372 16.696 312.692C16.344 313.012 15.912 313.172 15.4 313.172ZM21 303.512L21 305.224L13.32 305.224L13.32 303.512L21 303.512ZM10.824 303.32C11.1547 303.32 11.4107 303.421 11.592 303.624C11.7627 303.816 11.848 304.061 11.848 304.36C11.848 304.659 11.7627 304.909 11.592 305.112C11.4107 305.315 11.1547 305.416 10.824 305.416C10.504 305.416 10.2587 305.315 10.088 305.112C9.90666 304.909 9.816 304.659 9.816 304.36C9.816 304.061 9.90666 303.816 10.088 303.624C10.2587 303.421 10.504 303.32 10.824 303.32ZM15.4 301.734C14.6213 301.734 14.0453 301.441 13.672 300.854C13.2987 300.257 13.112 299.532 13.112 298.678C13.112 297.686 13.3307 296.764 13.768 295.91L15.272 295.91C15.0587 296.23 14.8827 296.641 14.744 297.142C14.5947 297.644 14.52 298.118 14.52 298.566C14.52 298.961 14.5893 299.297 14.728 299.574C14.856 299.852 15.064 299.99 15.352 299.99C15.6187 299.99 15.8427 299.83 16.024 299.51C16.1947 299.19 16.344 298.806 16.472 298.358C16.5893 297.9 16.7333 297.446 16.904 296.998C17.064 296.55 17.3147 296.166 17.656 295.846C17.9973 295.526 18.4293 295.366 18.952 295.366C19.7413 295.366 20.3173 295.676 20.68 296.294C21.032 296.913 21.208 297.708 21.208 298.678C21.208 299.884 20.9627 300.886 20.472 301.686L18.952 301.686C19.496 300.865 19.768 299.889 19.768 298.758C19.768 297.649 19.5067 297.094 18.984 297.094C18.728 297.094 18.5147 297.254 18.344 297.574C18.1627 297.894 18.0133 298.284 17.896 298.742C17.768 299.19 17.624 299.644 17.464 300.102C17.2933 300.55 17.0373 300.934 16.696 301.254C16.344 301.574 15.912 301.734 15.4 301.734ZM11 293.259L10.584 291.563L13.32 291.563L13.32 288.779L14.824 288.779L14.824 291.563L18.344 291.563C18.8347 291.563 19.1813 291.451 19.384 291.227C19.5867 290.992 19.688 290.619 19.688 290.107C19.688 289.584 19.5867 289.067 19.384 288.555L20.856 288.555C21.08 289.173 21.192 289.861 21.192 290.619C21.192 291.408 20.984 292.048 20.568 292.539C20.152 293.019 19.5173 293.259 18.664 293.259L14.824 293.259L14.824 294.635L13.32 294.635L13.32 293.259L11 293.259ZM19.224 280.618C19.5973 280.618 19.784 280.432 19.784 280.058C19.784 279.93 19.752 279.76 19.688 279.546L20.92 279.546C21.048 279.866 21.112 280.229 21.112 280.634C21.112 281.402 20.8133 281.914 20.216 282.17C20.8773 282.992 21.208 283.957 21.208 285.066C21.208 285.813 21.0053 286.448 20.6 286.97C20.184 287.493 19.6027 287.754 18.856 287.754C17.96 287.754 17.3093 287.418 16.904 286.746C16.488 286.074 16.28 285.269 16.28 284.33C16.28 283.712 16.3547 283.045 16.504 282.33L16.232 282.33C15.7413 282.33 15.3467 282.506 15.048 282.858C14.7493 283.21 14.6 283.706 14.6 284.346C14.6 285.296 14.7973 286.218 15.192 287.114L13.624 287.114C13.2827 286.112 13.112 285.13 13.112 284.17C13.112 283.05 13.3893 282.181 13.944 281.562C14.4987 280.933 15.3413 280.618 16.472 280.618L19.224 280.618ZM17.48 283.994C17.48 284.56 17.5813 285.034 17.784 285.418C17.9867 285.802 18.3067 285.994 18.744 285.994C19.1067 285.994 19.3893 285.856 19.592 285.578C19.784 285.301 19.88 284.96 19.88 284.554C19.88 283.68 19.576 282.938 18.968 282.33L17.672 282.33C17.544 282.949 17.48 283.504 17.48 283.994ZM19.224 268.306C19.5973 268.306 19.784 268.119 19.784 267.746C19.784 267.618 19.752 267.447 19.688 267.234L20.92 267.234C21.048 267.554 21.112 267.917 21.112 268.322C21.112 269.09 20.8133 269.602 20.216 269.858C20.8773 270.679 21.208 271.645 21.208 272.754C21.208 273.501 21.0053 274.135 20.6 274.658C20.184 275.181 19.6027 275.442 18.856 275.442C17.96 275.442 17.3093 275.106 16.904 274.434C16.488 273.762 16.28 272.957 16.28 272.018C16.28 271.399 16.3547 270.733 16.504 270.018L16.232 270.018C15.7413 270.018 15.3467 270.194 15.048 270.546C14.7493 270.898 14.6 271.394 14.6 272.034C14.6 272.983 14.7973 273.906 15.192 274.802L13.624 274.802C13.2827 273.799 13.112 272.818 13.112 271.858C13.112 270.738 13.3893 269.869 13.944 269.25C14.4987 268.621 15.3413 268.306 16.472 268.306L19.224 268.306ZM17.48 271.682C17.48 272.247 17.5813 272.722 17.784 273.106C17.9867 273.49 18.3067 273.682 18.744 273.682C19.1067 273.682 19.3893 273.543 19.592 273.266C19.784 272.989 19.88 272.647 19.88 272.242C19.88 271.367 19.576 270.626 18.968 270.018L17.672 270.018C17.544 270.637 17.48 271.191 17.48 271.682ZM20.136 265.317C19.4213 266.128 18.4293 266.533 17.16 266.533C15.8907 266.533 14.8987 266.128 14.184 265.317C13.4693 264.496 13.112 263.514 13.112 262.373C13.112 261.221 13.4693 260.24 14.184 259.429C14.8987 258.618 15.8907 258.213 17.16 258.213C18.4293 258.213 19.4213 258.618 20.136 259.429C20.8507 260.24 21.208 261.221 21.208 262.373C21.208 263.514 20.8507 264.496 20.136 265.317ZM18.968 260.629C18.5093 260.181 17.9067 259.957 17.16 259.957C16.4133 259.957 15.816 260.181 15.368 260.629C14.9093 261.077 14.68 261.658 14.68 262.373C14.68 263.098 14.9093 263.685 15.368 264.133C15.816 264.581 16.4133 264.805 17.16 264.805C17.9067 264.805 18.5093 264.581 18.968 264.133C19.416 263.685 19.64 263.098 19.64 262.373C19.64 261.658 19.416 261.077 18.968 260.629ZM13.32 247.577L13.32 245.705L21 249.001L21 250.809L13.32 254.089L13.32 252.233L19.144 249.897L13.32 247.577ZM13.32 244.427L13.32 242.715L21 242.715L21 244.427L13.32 244.427ZM12.248 243.067L12.248 244.811L9.88 243.355L9.88 241.371L12.248 243.067ZM9.79999 234.441L9.79999 232.729L21 232.729L21 234.265L19.784 234.265C20.7333 235.012 21.208 235.993 21.208 237.209C21.208 238.34 20.8187 239.257 20.04 239.961C19.2507 240.665 18.2907 241.017 17.16 241.017C16.0293 241.017 15.0747 240.665 14.296 239.961C13.5067 239.257 13.112 238.34 13.112 237.209C13.112 236.057 13.512 235.135 14.312 234.441L9.79999 234.441ZM16.216 234.457C15.768 234.66 15.3893 234.98 15.08 235.417C14.7707 235.844 14.616 236.34 14.616 236.905C14.616 237.599 14.856 238.169 15.336 238.617C15.8053 239.065 16.4133 239.289 17.16 239.289C17.9067 239.289 18.52 239.065 19 238.617C19.4693 238.169 19.704 237.599 19.704 236.905C19.704 236.34 19.5493 235.844 19.24 235.417C18.9307 234.98 18.5467 234.66 18.088 234.457L16.216 234.457ZM17.16 231.064C16.4987 231.064 15.9013 230.947 15.368 230.712C14.824 230.478 14.3973 230.168 14.088 229.784C13.768 229.4 13.528 228.984 13.368 228.536C13.1973 228.088 13.112 227.635 13.112 227.176C13.112 226.59 13.2027 226.062 13.384 225.592C13.5653 225.112 13.8107 224.728 14.12 224.44C14.4293 224.152 14.7867 223.918 15.192 223.736C15.5973 223.555 16.024 223.459 16.472 223.448C16.9093 223.438 17.352 223.475 17.8 223.56L17.8 229.336C18.4507 229.251 18.9413 228.931 19.272 228.376C19.592 227.822 19.752 227.16 19.752 226.392C19.752 225.518 19.5707 224.707 19.208 223.96L20.68 223.96C21.032 224.696 21.208 225.614 21.208 226.712C21.208 227.96 20.856 229 20.152 229.832C19.448 230.654 18.4507 231.064 17.16 231.064ZM16.52 225.096C16.0827 225.032 15.6453 225.166 15.208 225.496C14.76 225.816 14.536 226.35 14.536 227.096C14.536 227.704 14.712 228.227 15.064 228.664C15.416 229.091 15.9013 229.32 16.52 229.352L16.52 225.096ZM20.136 221.083C19.4213 221.893 18.4293 222.299 17.16 222.299C15.8907 222.299 14.8987 221.893 14.184 221.083C13.4693 220.261 13.112 219.28 13.112 218.139C13.112 216.987 13.4693 216.005 14.184 215.195C14.8987 214.384 15.8907 213.979 17.16 213.979C18.4293 213.979 19.4213 214.384 20.136 215.195C20.8507 216.005 21.208 216.987 21.208 218.139C21.208 219.28 20.8507 220.261 20.136 221.083ZM18.968 216.395C18.5093 215.947 17.9067 215.723 17.16 215.723C16.4133 215.723 15.816 215.947 15.368 216.395C14.9093 216.843 14.68 217.424 14.68 218.139C14.68 218.864 14.9093 219.451 15.368 219.899C15.816 220.347 16.4133 220.571 17.16 220.571C17.9067 220.571 18.5093 220.347 18.968 219.899C19.416 219.451 19.64 218.864 19.64 218.139C19.64 217.424 19.416 216.843 18.968 216.395ZM14.52 207.017C13.5813 206.239 13.112 205.252 13.112 204.057C13.112 202.927 13.5067 202.009 14.296 201.305C15.0747 200.601 16.0293 200.249 17.16 200.249C18.2907 200.249 19.2507 200.601 20.04 201.305C20.8187 202.009 21.208 202.927 21.208 204.057C21.208 205.209 20.808 206.132 20.008 206.825L24.52 206.825L24.52 208.537L13.32 208.537L13.32 207.017L14.52 207.017ZM19 202.665C18.52 202.217 17.9067 201.993 17.16 201.993C16.4133 201.993 15.8053 202.217 15.336 202.665C14.856 203.113 14.616 203.684 14.616 204.377C14.616 204.943 14.7707 205.444 15.08 205.881C15.3893 206.308 15.768 206.623 16.216 206.825L18.088 206.825C18.5467 206.623 18.9307 206.308 19.24 205.881C19.5493 205.444 19.704 204.943 19.704 204.377C19.704 203.684 19.4693 203.113 19 202.665ZM14.584 197.064C14.104 196.766 13.7307 196.323 13.464 195.736C13.1973 195.15 13.096 194.515 13.16 193.832L14.84 193.832C14.744 194.515 14.8347 195.134 15.112 195.688C15.3893 196.243 15.8 196.638 16.344 196.872L21 196.872L21 198.584L13.32 198.584L13.32 197.064L14.584 197.064ZM20.136 192.004C19.4213 192.815 18.4293 193.22 17.16 193.22C15.8907 193.22 14.8987 192.815 14.184 192.004C13.4693 191.183 13.112 190.202 13.112 189.06C13.112 187.908 13.4693 186.927 14.184 186.116C14.8987 185.306 15.8907 184.9 17.16 184.9C18.4293 184.9 19.4213 185.306 20.136 186.116C20.8507 186.927 21.208 187.908 21.208 189.06C21.208 190.202 20.8507 191.183 20.136 192.004ZM18.968 187.316C18.5093 186.868 17.9067 186.644 17.16 186.644C16.4133 186.644 15.816 186.868 15.368 187.316C14.9093 187.764 14.68 188.346 14.68 189.06C14.68 189.786 14.9093 190.372 15.368 190.82C15.816 191.268 16.4133 191.492 17.16 191.492C17.9067 191.492 18.5093 191.268 18.968 190.82C19.416 190.372 19.64 189.786 19.64 189.06C19.64 188.346 19.416 187.764 18.968 187.316ZM21 181.528L21 183.24L13.32 183.24L13.32 181.72L14.28 181.72C13.5013 181.027 13.112 180.174 13.112 179.16C13.112 178.051 13.5227 177.251 14.344 176.76C13.5227 175.939 13.112 175.043 13.112 174.072C13.112 173.112 13.4107 172.387 14.008 171.896C14.6053 171.406 15.336 171.16 16.2 171.16L21 171.16L21 172.872L16.248 172.872C15.7573 172.872 15.368 173.011 15.08 173.288C14.7813 173.555 14.632 173.923 14.632 174.392C14.632 175.086 14.9787 175.72 15.672 176.296C15.9067 176.275 16.0827 176.264 16.2 176.264L21 176.264L21 177.976L16.248 177.976C15.7573 177.976 15.368 178.115 15.08 178.392C14.7813 178.659 14.632 179.027 14.632 179.496C14.632 180.232 15.0267 180.91 15.816 181.528L21 181.528ZM20.136 168.364C19.4213 169.175 18.4293 169.58 17.16 169.58C15.8907 169.58 14.8987 169.175 14.184 168.364C13.4693 167.543 13.112 166.561 13.112 165.42C13.112 164.268 13.4693 163.287 14.184 162.476C14.8987 161.665 15.8907 161.26 17.16 161.26C18.4293 161.26 19.4213 161.665 20.136 162.476C20.8507 163.287 21.208 164.268 21.208 165.42C21.208 166.561 20.8507 167.543 20.136 168.364ZM18.968 163.676C18.5093 163.228 17.9067 163.004 17.16 163.004C16.4133 163.004 15.816 163.228 15.368 163.676C14.9093 164.124 14.68 164.705 14.68 165.42C14.68 166.145 14.9093 166.732 15.368 167.18C15.816 167.628 16.4133 167.852 17.16 167.852C17.9067 167.852 18.5093 167.628 18.968 167.18C19.416 166.732 19.64 166.145 19.64 165.42C19.64 164.705 19.416 164.124 18.968 163.676ZM17.224 160.08C15.8907 160.08 14.872 159.659 14.168 158.816C13.464 157.973 13.112 156.981 13.112 155.84C13.112 154.923 13.3093 154.133 13.704 153.472L15.272 153.472C14.8453 154.069 14.632 154.779 14.632 155.6C14.632 156.357 14.8453 157.003 15.272 157.536C15.688 158.069 16.3173 158.336 17.16 158.336C17.9813 158.336 18.6107 158.075 19.048 157.552C19.4747 157.019 19.688 156.379 19.688 155.632C19.688 154.821 19.4907 154.075 19.096 153.392L20.68 153.392C21.032 154.128 21.208 154.976 21.208 155.936C21.208 157.056 20.8667 158.027 20.184 158.848C19.4907 159.669 18.504 160.08 17.224 160.08ZM21 149.981L21 151.693L13.32 151.693L13.32 149.981L21 149.981ZM10.824 149.789C11.1547 149.789 11.4107 149.89 11.592 150.093C11.7627 150.285 11.848 150.53 11.848 150.829C11.848 151.128 11.7627 151.378 11.592 151.581C11.4107 151.784 11.1547 151.885 10.824 151.885C10.504 151.885 10.2587 151.784 10.088 151.581C9.90666 151.378 9.81599 151.128 9.81599 150.829C9.81599 150.53 9.90666 150.285 10.088 150.093C10.2587 149.89 10.504 149.789 10.824 149.789ZM20.136 147.067C19.4213 147.878 18.4293 148.283 17.16 148.283C15.8907 148.283 14.8987 147.878 14.184 147.067C13.4693 146.246 13.112 145.264 13.112 144.123C13.112 142.971 13.4693 141.99 14.184 141.179C14.8987 140.368 15.8907 139.963 17.16 139.963C18.4293 139.963 19.4213 140.368 20.136 141.179C20.8507 141.99 21.208 142.971 21.208 144.123C21.208 145.264 20.8507 146.246 20.136 147.067ZM18.968 142.379C18.5093 141.931 17.9067 141.707 17.16 141.707C16.4133 141.707 15.816 141.931 15.368 142.379C14.9093 142.827 14.68 143.408 14.68 144.123C14.68 144.848 14.9093 145.435 15.368 145.883C15.816 146.331 16.4133 146.555 17.16 146.555C17.9067 146.555 18.5093 146.331 18.968 145.883C19.416 145.435 19.64 144.848 19.64 144.123C19.64 143.408 19.416 142.827 18.968 142.379ZM14.376 136.783C13.5333 136.079 13.112 135.188 13.112 134.111C13.112 133.151 13.4053 132.383 13.992 131.807C14.568 131.231 15.32 130.943 16.248 130.943L21 130.943L21 132.655L16.472 132.655C15.8747 132.655 15.4213 132.82 15.112 133.151C14.792 133.482 14.632 133.914 14.632 134.447C14.632 135.29 15.0587 136.004 15.912 136.591L21 136.591L21 138.303L13.32 138.303L13.32 136.783L14.376 136.783ZM19.224 122.353C19.5973 122.353 19.784 122.166 19.784 121.793C19.784 121.665 19.752 121.494 19.688 121.281L20.92 121.281C21.048 121.601 21.112 121.963 21.112 122.369C21.112 123.137 20.8133 123.649 20.216 123.905C20.8773 124.726 21.208 125.691 21.208 126.801C21.208 127.547 21.0053 128.182 20.6 128.705C20.184 129.227 19.6027 129.489 18.856 129.489C17.96 129.489 17.3093 129.153 16.904 128.481C16.488 127.809 16.28 127.003 16.28 126.065C16.28 125.446 16.3547 124.779 16.504 124.065L16.232 124.065C15.7413 124.065 15.3467 124.241 15.048 124.593C14.7493 124.945 14.6 125.441 14.6 126.081C14.6 127.03 14.7973 127.953 15.192 128.849L13.624 128.849C13.2827 127.846 13.112 126.865 13.112 125.905C13.112 124.785 13.3893 123.915 13.944 123.297C14.4987 122.667 15.3413 122.353 16.472 122.353L19.224 122.353ZM17.48 125.729C17.48 126.294 17.5813 126.769 17.784 127.153C17.9867 127.537 18.3067 127.729 18.744 127.729C19.1067 127.729 19.3893 127.59 19.592 127.313C19.784 127.035 19.88 126.694 19.88 126.289C19.88 125.414 19.576 124.673 18.968 124.065L17.672 124.065C17.544 124.683 17.48 125.238 17.48 125.729ZM9.31999 120.068L9.31999 118.356L21 118.356L21 120.068L9.31999 120.068Z" fill="black"/>
<path d="M17.5 82L24.8612 94.75H10.1388L17.5 82Z" fill="#379C26"/>
</svg>
