<svg width="714" height="260" viewBox="0 0 714 260" fill="none" xmlns="http://www.w3.org/2000/svg">
<g clip-path="url(#clip0)">
<path d="M-0.338867 1.50586H68.4775V22.1357H25.2602V47.1324H65.4658V66.407H25.2602V111.431H-0.338867V1.50586Z" fill="#171717"/>
<path d="M115.217 70.7739V111.431H90.0696V2.25874C101.112 0.752913 113.159 0 126.21 0C141.268 0 152.461 2.86107 159.789 8.58321C167.218 14.205 170.933 22.2361 170.933 32.6765C170.933 39.4025 168.975 45.476 165.06 50.897C161.145 56.2176 155.975 60.0323 149.55 62.3413V62.6424C154.77 65.5537 159.037 71.5268 162.349 80.5618L173.944 111.431H147.592L137.202 81.6159C135.797 77.3995 134.09 74.5385 132.082 73.0326C130.074 71.5268 126.962 70.7739 122.746 70.7739H115.217ZM115.217 51.9511H123.65C130.677 51.9511 136.048 50.4954 139.762 47.5841C143.476 44.5725 145.334 40.4064 145.334 35.0858C145.334 24.6454 138.457 19.4252 124.704 19.4252C121.09 19.4252 117.927 19.7263 115.217 20.3287V51.9511Z" fill="#171717"/>
<path d="M216.4 22.1357V44.5725H258.112V63.9977H216.4V90.8014H261.123V111.431H190.801V1.50586H261.123V22.1357H216.4Z" fill="#171717"/>
<path d="M308.162 22.1357V44.5725H349.873V63.9977H308.162V90.8014H352.885V111.431H282.563V1.50586H352.885V22.1357H308.162Z" fill="#171717"/>
<path d="M464.222 54.9627C464.222 73.4342 459.102 87.7396 448.862 97.8788C438.723 107.918 424.418 112.937 405.946 112.937C394.803 112.937 384.262 112.184 374.324 110.678V2.25874C384.262 0.752913 394.803 0 405.946 0C424.418 0 438.723 4.86884 448.862 14.6065C459.102 24.2438 464.222 37.6959 464.222 54.9627ZM439.828 54.9627C439.828 31.6726 429.186 20.0275 407.904 20.0275C404.993 20.0275 402.182 20.3287 399.471 20.931V92.0061C402.182 92.6084 404.993 92.9096 407.904 92.9096C429.186 92.9096 439.828 80.2606 439.828 54.9627Z" fill="#171717"/>
<path d="M490.102 15.2089C500.241 5.06962 513.794 0 530.759 0C547.725 0 561.227 5.06962 571.266 15.2089C581.405 25.3481 586.475 39.1013 586.475 56.4685C586.475 73.8357 581.405 87.589 571.266 97.7282C561.227 107.867 547.725 112.937 530.759 112.937C513.794 112.937 500.241 107.867 490.102 97.7282C480.063 87.589 475.044 73.8357 475.044 56.4685C475.044 39.1013 480.063 25.3481 490.102 15.2089ZM508.925 82.8205C514.145 88.8438 521.423 91.8555 530.759 91.8555C540.096 91.8555 547.324 88.8438 552.443 82.8205C557.664 76.7972 560.274 68.0132 560.274 56.4685C560.274 44.9239 557.664 36.1399 552.443 30.1165C547.324 24.0932 540.096 21.0816 530.759 21.0816C521.423 21.0816 514.145 24.0932 508.925 30.1165C503.805 36.1399 501.245 44.9239 501.245 56.4685C501.245 68.0132 503.805 76.7972 508.925 82.8205Z" fill="#171717"/>
<path d="M689.136 44.1207H688.835L669.56 86.2839H646.371L627.096 44.1207H626.795V111.431H602.551V1.50586H628.752L657.815 66.2564H658.116L687.178 1.50586H713.982V111.431H689.136V44.1207Z" fill="#171717"/>
<path d="M14 224V260.002L0 260V164.578C9.11795 163.263 17.7619 162.686 27.932 162.686C40.0308 162.686 49.1926 165.272 55.4173 170.445C61.6421 175.53 64.7545 182.806 64.7545 192.275C64.7545 213.755 52.4803 224.495 27.932 224.495C23.2853 224.495 18.9973 224.438 14 224ZM13.466 212.133C17.8496 212.834 22.2332 213.185 26.6169 213.185C34.3321 213.185 40.25 211.519 44.3706 208.188C48.4912 204.768 50.5515 199.903 50.5515 193.59C50.5515 187.278 48.535 182.5 44.5021 179.256C40.4692 175.924 34.5074 174.258 26.6169 174.258C21.6195 174.258 17.2359 174.565 13.466 175.179V212.133Z" fill="#171717"/>
<path d="M96 220.549V260.002H82V164.818C90.2412 163.503 98.2781 162.686 107.571 162.686C120.196 162.686 129.709 165.009 136.109 169.656C142.509 174.302 145.709 180.746 145.709 188.987C145.709 195.65 143.999 201.349 140.58 206.083C137.161 210.818 132.514 214.062 126.64 215.815V216.078C130.41 218.358 133.917 223.574 137.161 231.728L148.339 260.002H133.347L122.432 231.728C120.591 226.993 118.531 223.969 116.251 222.654C114.059 221.251 109.851 220.549 103.626 220.549H96ZM95.7356 209.24H103.626C122.213 209.24 131.506 202.927 131.506 190.302C131.506 184.954 129.49 180.965 125.457 178.335C121.511 175.617 115.111 174.258 106.256 174.258C102.311 174.258 98.8042 174.565 95.7356 175.179V209.24Z" fill="#171717"/>
<path d="M194.992 260.002L230.894 164.001H238.785L274.818 260.002H267.717L256.67 229.624H212.877L201.831 260.002H194.992ZM214.982 224.1H254.697L234.971 169.787H234.708L214.982 224.1Z" fill="#171717"/>
<path d="M330.36 167.34C317.209 167.34 306.864 171.242 299.324 179.045C291.872 186.848 288.146 197.5 288.146 211.001C288.146 224.415 291.959 235.068 299.587 242.958C307.215 250.761 317.604 254.662 330.755 254.662C340.486 254.662 349.122 252.953 356.662 249.534V209.686H320.234V204.163H362.974V253.216C353.418 257.95 342.547 260.317 330.36 260.317C315.543 260.317 303.664 255.846 294.721 246.903C285.866 237.961 281.439 225.993 281.439 211.001C281.439 196.009 285.779 184.042 294.458 175.099C303.225 166.157 315.017 161.686 329.834 161.686C341.144 161.686 351.051 164.316 359.555 169.576L357.056 174.573C349.078 169.751 340.179 167.34 330.36 167.34Z" fill="#171717"/>
<path d="M391.408 169.656V205.163H436.516V210.686H391.408V254.347H439.146V260.002H384.833V164.001H439.146V169.656H391.408Z" fill="#171717"/>
<path d="M460.99 260.002V164.001H468.486L523.456 250.007H523.719V164.001H530.295V260.002H522.667L467.696 173.995H467.433V260.002H460.99Z" fill="#171717"/>
<path d="M594.882 167.34C582.433 167.34 572.526 171.286 565.161 179.176C557.884 187.067 554.246 197.675 554.246 211.001C554.246 224.24 557.972 234.848 565.424 242.827C572.876 250.717 582.696 254.662 594.882 254.662C604.438 254.662 613.249 252.032 621.315 246.772L623.814 251.901C615.485 257.512 605.71 260.317 594.488 260.317C580.285 260.317 568.887 255.846 560.295 246.903C551.791 237.961 547.539 225.993 547.539 211.001C547.539 195.834 551.747 183.823 560.164 174.968C568.668 166.113 580.109 161.686 594.488 161.686C605.71 161.686 615.485 164.491 623.814 170.102L621.315 175.231C613.425 169.971 604.614 167.34 594.882 167.34Z" fill="#171717"/>
<path d="M640.928 164.001L671.964 212.396H672.227L703.131 164.001H710.759L675.383 218.182V260.002H668.545V218.182L633.169 164.001H640.928Z" fill="#171717"/>
</g>
<defs>
<clipPath id="clip0">
<rect width="714" height="260" fill="white"/>
</clipPath>
</defs>
</svg>
