<svg width="50" height="50" viewBox="0 0 50 50" fill="none" xmlns="http://www.w3.org/2000/svg">
<circle cx="25" cy="25" r="24.5" fill="white" stroke="black"/>
<path d="M22.375 16H18.625C18.0047 16 17.5 16.5047 17.5 17.125V32.875C17.5 33.4953 18.0047 34 18.625 34H22.375C22.9953 34 23.5 33.4953 23.5 32.875V17.125C23.5 16.5047 22.9952 16 22.375 16Z" fill="black"/>
<path d="M31.375 16H27.625C27.0047 16 26.5 16.5047 26.5 17.125V32.875C26.5 33.4953 27.0047 34 27.625 34H31.375C31.9953 34 32.5 33.4953 32.5 32.875V17.125C32.5 16.5047 31.9952 16 31.375 16Z" fill="black"/>
</svg>
