<svg width="50" height="50" viewBox="0 0 50 50" fill="none" xmlns="http://www.w3.org/2000/svg">
<path d="M0 25.6791L2.67402 37.3939L13.6672 47.4958L32.0458 49.8302L45.5433 42.5722L50 22.2411L43.1664 6.96095L33.2343 0L11.2903 2.37691L2.67402 13.9219L0 25.6791Z" fill="#426886" fill-opacity="0.7"/>
<path d="M27.3572 36H33.6429C34.0768 36 34.4286 35.6482 34.4286 35.2143V14.7857C34.4286 14.3518 34.0768 14 33.6429 14H27.3572C26.9232 14 26.5714 14.3518 26.5714 14.7857V35.2143C26.5714 35.6482 26.9232 36 27.3572 36Z" fill="#E8C250"/>
<path d="M16.3572 36H22.6429C23.0768 36 23.4286 35.6482 23.4286 35.2143V14.7857C23.4286 14.3518 23.0768 14 22.6429 14H16.3572C15.9232 14 15.5715 14.3518 15.5715 14.7857V35.2143C15.5715 35.6482 15.9232 36 16.3572 36Z" fill="#E8C250"/>
</svg>
