<svg width="35" height="851" viewBox="0 0 35 851" fill="none" xmlns="http://www.w3.org/2000/svg">
<path d="M17 316L17 851" stroke="black" stroke-width="2"/>
<path d="M17 0L17 54" stroke="black" stroke-width="2"/>
<rect x="1.5" y="73.5" width="32" height="32" rx="16" stroke="#379C26" stroke-width="3"/>
<path d="M16.496 296.328C15.536 296.328 14.672 296.157 13.904 295.816C13.136 295.475 12.5173 295.021 12.048 294.456C11.568 293.891 11.2053 293.261 10.96 292.568C10.7147 291.875 10.592 291.149 10.592 290.392C10.592 289.251 10.8373 288.189 11.328 287.208L13.104 287.208C12.5493 288.008 12.272 288.968 12.272 290.088C12.272 291.272 12.6293 292.296 13.344 293.16C14.0587 294.024 15.1093 294.461 16.496 294.472C17.3707 294.472 18.1227 294.248 18.752 293.8C19.3813 293.352 19.8347 292.803 20.112 292.152C20.3893 291.501 20.528 290.803 20.528 290.056C20.528 288.861 20.24 287.885 19.664 287.128L21.472 287.128C21.9627 288.131 22.208 289.213 22.208 290.376C22.208 291.123 22.0907 291.843 21.856 292.536C21.6107 293.229 21.2587 293.864 20.8 294.44C20.3413 295.016 19.7387 295.475 18.992 295.816C18.2453 296.157 17.4133 296.328 16.496 296.328ZM22 283.842L22 285.49L14.32 285.49L14.32 283.762L18.368 281.154L14.32 278.53L14.32 276.802L22 276.802L22 278.45L16.8 278.45L20.16 280.642L20.16 281.666L16.8 283.842L22 283.842ZM21.136 273.926C20.4213 274.737 19.4293 275.142 18.16 275.142C16.8907 275.142 15.8987 274.737 15.184 273.926C14.4693 273.105 14.112 272.124 14.112 270.982C14.112 269.83 14.4693 268.849 15.184 268.038C15.8987 267.228 16.8907 266.822 18.16 266.822C19.4293 266.822 20.4213 267.228 21.136 268.038C21.8507 268.849 22.208 269.83 22.208 270.982C22.208 272.124 21.8507 273.105 21.136 273.926ZM19.968 269.238C19.5093 268.79 18.9067 268.566 18.16 268.566C17.4133 268.566 16.816 268.79 16.368 269.238C15.9093 269.686 15.68 270.268 15.68 270.982C15.68 271.708 15.9093 272.294 16.368 272.742C16.816 273.19 17.4133 273.414 18.16 273.414C18.9067 273.414 19.5093 273.19 19.968 272.742C20.416 272.294 20.64 271.708 20.64 270.982C20.64 270.268 20.416 269.686 19.968 269.238ZM22 261.797L22 263.509L15.824 263.509L15.824 266.165L14.32 266.165L14.32 259.157L15.824 259.157L15.824 261.797L22 261.797ZM15.52 256.299C14.5813 255.52 14.112 254.533 14.112 253.339C14.112 252.208 14.5067 251.291 15.296 250.587C16.0747 249.883 17.0293 249.531 18.16 249.531C19.2907 249.531 20.2507 249.883 21.04 250.587C21.8187 251.291 22.208 252.208 22.208 253.339C22.208 254.491 21.808 255.413 21.008 256.107L25.52 256.107L25.52 257.819L14.32 257.819L14.32 256.299L15.52 256.299ZM20 251.947C19.52 251.499 18.9067 251.275 18.16 251.275C17.4133 251.275 16.8053 251.499 16.336 251.947C15.856 252.395 15.616 252.965 15.616 253.659C15.616 254.224 15.7707 254.725 16.08 255.163C16.3893 255.589 16.768 255.904 17.216 256.107L19.088 256.107C19.5467 255.904 19.9307 255.589 20.24 255.163C20.5493 254.725 20.704 254.224 20.704 253.659C20.704 252.965 20.4693 252.395 20 251.947ZM18.16 248.345C17.4987 248.345 16.9013 248.228 16.368 247.993C15.824 247.759 15.3973 247.449 15.088 247.065C14.768 246.681 14.528 246.265 14.368 245.817C14.1973 245.369 14.112 244.916 14.112 244.457C14.112 243.871 14.2027 243.343 14.384 242.873C14.5653 242.393 14.8107 242.009 15.12 241.721C15.4293 241.433 15.7867 241.199 16.192 241.017C16.5973 240.836 17.024 240.74 17.472 240.729C17.9093 240.719 18.352 240.756 18.8 240.841L18.8 246.617C19.4507 246.532 19.9413 246.212 20.272 245.657C20.592 245.103 20.752 244.441 20.752 243.673C20.752 242.799 20.5707 241.988 20.208 241.241L21.68 241.241C22.032 241.977 22.208 242.895 22.208 243.993C22.208 245.241 21.856 246.281 21.152 247.113C20.448 247.935 19.4507 248.345 18.16 248.345ZM17.52 242.377C17.0827 242.313 16.6453 242.447 16.208 242.777C15.76 243.097 15.536 243.631 15.536 244.377C15.536 244.985 15.712 245.508 16.064 245.945C16.416 246.372 16.9013 246.601 17.52 246.633L17.52 242.377ZM22 235.688L22 237.4L15.824 237.4L15.824 240.056L14.32 240.056L14.32 233.048L15.824 233.048L15.824 235.688L22 235.688ZM22 227.901L22 231.709L14.32 231.709L14.32 229.997L16.88 229.997L16.88 227.901C16.88 226.963 17.12 226.221 17.6 225.677C18.08 225.133 18.6933 224.861 19.44 224.861C20.1867 224.861 20.8 225.133 21.28 225.677C21.76 226.221 22 226.963 22 227.901ZM18.224 229.997L20.64 229.997L20.64 228.237C20.64 227.725 20.5387 227.325 20.336 227.037C20.1227 226.749 19.824 226.605 19.44 226.605C19.0453 226.605 18.7467 226.749 18.544 227.037C18.3307 227.325 18.224 227.725 18.224 228.237L18.224 229.997ZM22 217.872L22 219.584L14.32 219.584L14.32 212.32L22 212.32L22 214.032L15.824 214.032L15.824 217.872L22 217.872ZM15.52 208.658C14.5813 207.879 14.112 206.893 14.112 205.698C14.112 204.567 14.5067 203.65 15.296 202.946C16.0747 202.242 17.0293 201.89 18.16 201.89C19.2907 201.89 20.2507 202.242 21.04 202.946C21.8187 203.65 22.208 204.567 22.208 205.698C22.208 206.85 21.808 207.773 21.008 208.466L25.52 208.466L25.52 210.178L14.32 210.178L14.32 208.658L15.52 208.658ZM20 204.306C19.52 203.858 18.9067 203.634 18.16 203.634C17.4133 203.634 16.8053 203.858 16.336 204.306C15.856 204.754 15.616 205.325 15.616 206.018C15.616 206.583 15.7707 207.085 16.08 207.522C16.3893 207.949 16.768 208.263 17.216 208.466L19.088 208.466C19.5467 208.263 19.9307 207.949 20.24 207.522C20.5493 207.085 20.704 206.583 20.704 206.018C20.704 205.325 20.4693 204.754 20 204.306ZM21.136 199.489C20.4213 200.3 19.4293 200.705 18.16 200.705C16.8907 200.705 15.8987 200.3 15.184 199.489C14.4693 198.668 14.112 197.686 14.112 196.545C14.112 195.393 14.4693 194.412 15.184 193.601C15.8987 192.79 16.8907 192.385 18.16 192.385C19.4293 192.385 20.4213 192.79 21.136 193.601C21.8507 194.412 22.208 195.393 22.208 196.545C22.208 197.686 21.8507 198.668 21.136 199.489ZM19.968 194.801C19.5093 194.353 18.9067 194.129 18.16 194.129C17.4133 194.129 16.816 194.353 16.368 194.801C15.9093 195.249 15.68 195.83 15.68 196.545C15.68 197.27 15.9093 197.857 16.368 198.305C16.816 198.753 17.4133 198.977 18.16 198.977C18.9067 198.977 19.5093 198.753 19.968 198.305C20.416 197.857 20.64 197.27 20.64 196.545C20.64 195.83 20.416 195.249 19.968 194.801ZM22 189.077L22 190.725L14.32 190.725L14.32 188.997L18.368 186.389L14.32 183.765L14.32 182.037L22 182.037L22 183.685L16.8 183.685L20.16 185.877L20.16 186.901L16.8 189.077L22 189.077ZM21.136 179.161C20.4213 179.971 19.4293 180.377 18.16 180.377C16.8907 180.377 15.8987 179.971 15.184 179.161C14.4693 178.339 14.112 177.358 14.112 176.217C14.112 175.065 14.4693 174.083 15.184 173.273C15.8987 172.462 16.8907 172.057 18.16 172.057C19.4293 172.057 20.4213 172.462 21.136 173.273C21.8507 174.083 22.208 175.065 22.208 176.217C22.208 177.358 21.8507 178.339 21.136 179.161ZM19.968 174.473C19.5093 174.025 18.9067 173.801 18.16 173.801C17.4133 173.801 16.816 174.025 16.368 174.473C15.9093 174.921 15.68 175.502 15.68 176.217C15.68 176.942 15.9093 177.529 16.368 177.977C16.816 178.425 17.4133 178.649 18.16 178.649C18.9067 178.649 19.5093 178.425 19.968 177.977C20.416 177.529 20.64 176.942 20.64 176.217C20.64 175.502 20.416 174.921 19.968 174.473ZM17.296 170.525L17.296 164.701L18.832 164.701L18.832 170.525L17.296 170.525ZM22 158.166L22 162.678L14.32 162.678L14.32 158.294C14.32 157.537 14.512 156.945 14.896 156.518C15.2693 156.081 15.76 155.862 16.368 155.862C17.2107 155.862 17.792 156.225 18.112 156.95C18.2293 156.566 18.4427 156.251 18.752 156.006C19.0613 155.761 19.44 155.638 19.888 155.638C20.5173 155.638 21.0293 155.851 21.424 156.278C21.808 156.694 22 157.323 22 158.166ZM18.736 160.966L20.704 160.966L20.704 158.582C20.704 157.771 20.3787 157.366 19.728 157.366C19.0667 157.366 18.736 157.761 18.736 158.55L18.736 160.966ZM15.616 160.966L17.52 160.966L17.52 158.678C17.52 157.953 17.2107 157.59 16.592 157.59C16.2507 157.59 16.0053 157.697 15.856 157.91C15.696 158.113 15.616 158.369 15.616 158.678L15.616 160.966ZM22 152.44L22 153.912L14.32 153.912L14.32 152.2L19.344 152.2L14.32 148.088L14.32 146.616L22 146.616L22 148.328L16.976 148.328L22 152.44ZM24.064 143.547L24.064 145.163L20.592 145.163L20.592 144.107C19.0987 143.264 17.008 142.859 14.32 142.891L14.32 136.891L20.592 136.891L20.592 135.755L24.064 135.755L24.064 137.371L22 137.371L22 143.547L24.064 143.547ZM15.728 141.291C17.648 141.355 19.2693 141.696 20.592 142.315L20.592 138.619L15.728 138.619L15.728 141.291ZM18.16 134.83C17.4987 134.83 16.9013 134.713 16.368 134.478C15.824 134.243 15.3973 133.934 15.088 133.55C14.768 133.166 14.528 132.75 14.368 132.302C14.1973 131.854 14.112 131.401 14.112 130.942C14.112 130.355 14.2027 129.827 14.384 129.358C14.5653 128.878 14.8107 128.494 15.12 128.206C15.4293 127.918 15.7867 127.683 16.192 127.502C16.5973 127.321 17.024 127.225 17.472 127.214C17.9093 127.203 18.352 127.241 18.8 127.326L18.8 133.102C19.4507 133.017 19.9413 132.697 20.272 132.142C20.592 131.587 20.752 130.926 20.752 130.158C20.752 129.283 20.5707 128.473 20.208 127.726L21.68 127.726C22.032 128.462 22.208 129.379 22.208 130.478C22.208 131.726 21.856 132.766 21.152 133.598C20.448 134.419 19.4507 134.83 18.16 134.83ZM17.52 128.862C17.0827 128.798 16.6453 128.931 16.208 129.262C15.76 129.582 15.536 130.115 15.536 130.862C15.536 131.47 15.712 131.993 16.064 132.43C16.416 132.857 16.9013 133.086 17.52 133.118L17.52 128.862ZM21.136 124.879C20.4213 125.69 19.4293 126.095 18.16 126.095C16.8907 126.095 15.8987 125.69 15.184 124.879C14.4693 124.058 14.112 123.077 14.112 121.935C14.112 120.783 14.4693 119.802 15.184 118.991C15.8987 118.181 16.8907 117.775 18.16 117.775C19.4293 117.775 20.4213 118.181 21.136 118.991C21.8507 119.802 22.208 120.783 22.208 121.935C22.208 123.077 21.8507 124.058 21.136 124.879ZM19.968 120.191C19.5093 119.743 18.9067 119.519 18.16 119.519C17.4133 119.519 16.816 119.743 16.368 120.191C15.9093 120.639 15.68 121.221 15.68 121.935C15.68 122.661 15.9093 123.247 16.368 123.695C16.816 124.143 17.4133 124.367 18.16 124.367C18.9067 124.367 19.5093 124.143 19.968 123.695C20.416 123.247 20.64 122.661 20.64 121.935C20.64 121.221 20.416 120.639 19.968 120.191Z" fill="black"/>
<path d="M17.5 82L24.8612 94.75H10.1388L17.5 82Z" fill="#379C26"/>
</svg>
