<svg width="35" height="851" viewBox="0 0 35 851" fill="none" xmlns="http://www.w3.org/2000/svg">
<path d="M17 316L17 851" stroke="black" stroke-width="2"/>
<path d="M17 0L17 54" stroke="black" stroke-width="2"/>
<rect x="1.5" y="73.5" width="32" height="32" rx="16" stroke="#379C26" stroke-width="3"/>
<path d="M10.8 276.696L10.8 274.696L22 278.2L22 280.2L13.648 282.76L22 285.32L22 287.32L10.8 290.808L10.8 288.824L19.856 286.28L10.8 283.56L10.8 281.944L19.856 279.224L10.8 276.696ZM20.224 267.634C20.5973 267.634 20.784 267.447 20.784 267.074C20.784 266.946 20.752 266.775 20.688 266.562L21.92 266.562C22.048 266.882 22.112 267.245 22.112 267.65C22.112 268.418 21.8133 268.93 21.216 269.186C21.8773 270.007 22.208 270.973 22.208 272.082C22.208 272.829 22.0053 273.463 21.6 273.986C21.184 274.509 20.6027 274.77 19.856 274.77C18.96 274.77 18.3093 274.434 17.904 273.762C17.488 273.09 17.28 272.285 17.28 271.346C17.28 270.727 17.3547 270.061 17.504 269.346L17.232 269.346C16.7413 269.346 16.3467 269.522 16.048 269.874C15.7493 270.226 15.6 270.722 15.6 271.362C15.6 272.311 15.7973 273.234 16.192 274.13L14.624 274.13C14.2827 273.127 14.112 272.146 14.112 271.186C14.112 270.066 14.3893 269.197 14.944 268.578C15.4987 267.949 16.3413 267.634 17.472 267.634L20.224 267.634ZM18.48 271.01C18.48 271.575 18.5813 272.05 18.784 272.434C18.9867 272.818 19.3067 273.01 19.744 273.01C20.1067 273.01 20.3893 272.871 20.592 272.594C20.784 272.317 20.88 271.975 20.88 271.57C20.88 270.695 20.576 269.954 19.968 269.346L18.672 269.346C18.544 269.965 18.48 270.519 18.48 271.01ZM12 264.899L11.584 263.203L14.32 263.203L14.32 260.419L15.824 260.419L15.824 263.203L19.344 263.203C19.8347 263.203 20.1813 263.091 20.384 262.867C20.5867 262.633 20.688 262.259 20.688 261.747C20.688 261.225 20.5867 260.707 20.384 260.195L21.856 260.195C22.08 260.814 22.192 261.502 22.192 262.259C22.192 263.049 21.984 263.689 21.568 264.179C21.152 264.659 20.5173 264.899 19.664 264.899L15.824 264.899L15.824 266.275L14.32 266.275L14.32 264.899L12 264.899ZM18.224 259.283C16.8907 259.283 15.872 258.862 15.168 258.019C14.464 257.176 14.112 256.184 14.112 255.043C14.112 254.126 14.3093 253.336 14.704 252.675L16.272 252.675C15.8453 253.272 15.632 253.982 15.632 254.803C15.632 255.56 15.8453 256.206 16.272 256.739C16.688 257.272 17.3173 257.539 18.16 257.539C18.9813 257.539 19.6107 257.278 20.048 256.755C20.4747 256.222 20.688 255.582 20.688 254.835C20.688 254.024 20.4907 253.278 20.096 252.595L21.68 252.595C22.032 253.331 22.208 254.179 22.208 255.139C22.208 256.259 21.8667 257.23 21.184 258.051C20.4907 258.872 19.504 259.283 18.224 259.283ZM10.8 250.928L10.8 249.216L15.168 249.216C14.464 248.533 14.112 247.707 14.112 246.736C14.112 245.776 14.4053 245.008 14.992 244.432C15.568 243.856 16.32 243.568 17.248 243.568L22 243.568L22 245.28L17.472 245.28C16.8747 245.28 16.4213 245.445 16.112 245.776C15.792 246.107 15.632 246.539 15.632 247.072C15.632 247.915 16.0587 248.629 16.912 249.216L22 249.216L22 250.928L10.8 250.928ZM12 237.477L11.584 235.781L14.32 235.781L14.32 232.997L15.824 232.997L15.824 235.781L19.344 235.781C19.8347 235.781 20.1813 235.669 20.384 235.445C20.5867 235.211 20.688 234.837 20.688 234.325C20.688 233.803 20.5867 233.285 20.384 232.773L21.856 232.773C22.08 233.392 22.192 234.08 22.192 234.837C22.192 235.627 21.984 236.267 21.568 236.757C21.152 237.237 20.5173 237.477 19.664 237.477L15.824 237.477L15.824 238.853L14.32 238.853L14.32 237.477L12 237.477ZM10.8 231.381L10.8 229.669L15.168 229.669C14.464 228.986 14.112 228.16 14.112 227.189C14.112 226.229 14.4053 225.461 14.992 224.885C15.568 224.309 16.32 224.021 17.248 224.021L22 224.021L22 225.733L17.472 225.733C16.8747 225.733 16.4213 225.898 16.112 226.229C15.792 226.56 15.632 226.992 15.632 227.525C15.632 228.368 16.0587 229.082 16.912 229.669L22 229.669L22 231.381L10.8 231.381ZM18.16 222.455C17.4987 222.455 16.9013 222.338 16.368 222.103C15.824 221.868 15.3973 221.559 15.088 221.175C14.768 220.791 14.528 220.375 14.368 219.927C14.1973 219.479 14.112 219.026 14.112 218.567C14.112 217.98 14.2027 217.452 14.384 216.983C14.5653 216.503 14.8107 216.119 15.12 215.831C15.4293 215.543 15.7867 215.308 16.192 215.127C16.5973 214.946 17.024 214.85 17.472 214.839C17.9093 214.828 18.352 214.866 18.8 214.951L18.8 220.727C19.4507 220.642 19.9413 220.322 20.272 219.767C20.592 219.212 20.752 218.551 20.752 217.783C20.752 216.908 20.5707 216.098 20.208 215.351L21.68 215.351C22.032 216.087 22.208 217.004 22.208 218.103C22.208 219.351 21.856 220.391 21.152 221.223C20.448 222.044 19.4507 222.455 18.16 222.455ZM17.52 216.487C17.0827 216.423 16.6453 216.556 16.208 216.887C15.76 217.207 15.536 217.74 15.536 218.487C15.536 219.095 15.712 219.618 16.064 220.055C16.416 220.482 16.9013 220.711 17.52 220.743L17.52 216.487ZM15.52 207.908C14.5813 207.129 14.112 206.143 14.112 204.948C14.112 203.817 14.5067 202.9 15.296 202.196C16.0747 201.492 17.0293 201.14 18.16 201.14C19.2907 201.14 20.2507 201.492 21.04 202.196C21.8187 202.9 22.208 203.817 22.208 204.948C22.208 206.1 21.808 207.023 21.008 207.716L25.52 207.716L25.52 209.428L14.32 209.428L14.32 207.908L15.52 207.908ZM20 203.556C19.52 203.108 18.9067 202.884 18.16 202.884C17.4133 202.884 16.8053 203.108 16.336 203.556C15.856 204.004 15.616 204.575 15.616 205.268C15.616 205.833 15.7707 206.335 16.08 206.772C16.3893 207.199 16.768 207.513 17.216 207.716L19.088 207.716C19.5467 207.513 19.9307 207.199 20.24 206.772C20.5493 206.335 20.704 205.833 20.704 205.268C20.704 204.575 20.4693 204.004 20 203.556ZM15.584 197.955C15.104 197.656 14.7307 197.214 14.464 196.627C14.1973 196.04 14.096 195.406 14.16 194.723L15.84 194.723C15.744 195.406 15.8347 196.024 16.112 196.579C16.3893 197.134 16.8 197.528 17.344 197.763L22 197.763L22 199.475L14.32 199.475L14.32 197.955L15.584 197.955ZM21.136 192.895C20.4213 193.706 19.4293 194.111 18.16 194.111C16.8907 194.111 15.8987 193.706 15.184 192.895C14.4693 192.074 14.112 191.092 14.112 189.951C14.112 188.799 14.4693 187.818 15.184 187.007C15.8987 186.196 16.8907 185.791 18.16 185.791C19.4293 185.791 20.4213 186.196 21.136 187.007C21.8507 187.818 22.208 188.799 22.208 189.951C22.208 191.092 21.8507 192.074 21.136 192.895ZM19.968 188.207C19.5093 187.759 18.9067 187.535 18.16 187.535C17.4133 187.535 16.816 187.759 16.368 188.207C15.9093 188.655 15.68 189.236 15.68 189.951C15.68 190.676 15.9093 191.263 16.368 191.711C16.816 192.159 17.4133 192.383 18.16 192.383C18.9067 192.383 19.5093 192.159 19.968 191.711C20.416 191.263 20.64 190.676 20.64 189.951C20.64 189.236 20.416 188.655 19.968 188.207ZM22 182.419L22 184.131L14.32 184.131L14.32 182.611L15.28 182.611C14.5013 181.918 14.112 181.064 14.112 180.051C14.112 178.942 14.5227 178.142 15.344 177.651C14.5227 176.83 14.112 175.934 14.112 174.963C14.112 174.003 14.4107 173.278 15.008 172.787C15.6053 172.296 16.336 172.051 17.2 172.051L22 172.051L22 173.763L17.248 173.763C16.7573 173.763 16.368 173.902 16.08 174.179C15.7813 174.446 15.632 174.814 15.632 175.283C15.632 175.976 15.9787 176.611 16.672 177.187C16.9067 177.166 17.0827 177.155 17.2 177.155L22 177.155L22 178.867L17.248 178.867C16.7573 178.867 16.368 179.006 16.08 179.283C15.7813 179.55 15.632 179.918 15.632 180.387C15.632 181.123 16.0267 181.8 16.816 182.419L22 182.419ZM21.136 169.254C20.4213 170.065 19.4293 170.47 18.16 170.47C16.8907 170.47 15.8987 170.065 15.184 169.254C14.4693 168.433 14.112 167.452 14.112 166.31C14.112 165.158 14.4693 164.177 15.184 163.366C15.8987 162.556 16.8907 162.15 18.16 162.15C19.4293 162.15 20.4213 162.556 21.136 163.366C21.8507 164.177 22.208 165.158 22.208 166.31C22.208 167.452 21.8507 168.433 21.136 169.254ZM19.968 164.566C19.5093 164.118 18.9067 163.894 18.16 163.894C17.4133 163.894 16.816 164.118 16.368 164.566C15.9093 165.014 15.68 165.596 15.68 166.31C15.68 167.036 15.9093 167.622 16.368 168.07C16.816 168.518 17.4133 168.742 18.16 168.742C18.9067 168.742 19.5093 168.518 19.968 168.07C20.416 167.622 20.64 167.036 20.64 166.31C20.64 165.596 20.416 165.014 19.968 164.566ZM14.32 151.515L14.32 149.643L22 152.939L22 154.747L14.32 158.027L14.32 156.171L20.144 153.835L14.32 151.515ZM22 146.653L22 148.365L14.32 148.365L14.32 146.653L22 146.653ZM11.824 146.461C12.1547 146.461 12.4107 146.562 12.592 146.765C12.7627 146.957 12.848 147.202 12.848 147.501C12.848 147.799 12.7627 148.05 12.592 148.253C12.4107 148.455 12.1547 148.557 11.824 148.557C11.504 148.557 11.2587 148.455 11.088 148.253C10.9067 148.05 10.816 147.799 10.816 147.501C10.816 147.202 10.9067 146.957 11.088 146.765C11.2587 146.562 11.504 146.461 11.824 146.461ZM10.8 138.379L10.8 136.667L22 136.667L22 138.203L20.784 138.203C21.7333 138.95 22.208 139.931 22.208 141.147C22.208 142.278 21.8187 143.195 21.04 143.899C20.2507 144.603 19.2907 144.955 18.16 144.955C17.0293 144.955 16.0747 144.603 15.296 143.899C14.5067 143.195 14.112 142.278 14.112 141.147C14.112 139.995 14.512 139.072 15.312 138.379L10.8 138.379ZM17.216 138.395C16.768 138.598 16.3893 138.918 16.08 139.355C15.7707 139.782 15.616 140.278 15.616 140.843C15.616 141.536 15.856 142.107 16.336 142.555C16.8053 143.003 17.4133 143.227 18.16 143.227C18.9067 143.227 19.52 143.003 20 142.555C20.4693 142.107 20.704 141.536 20.704 140.843C20.704 140.278 20.5493 139.782 20.24 139.355C19.9307 138.918 19.5467 138.598 19.088 138.395L17.216 138.395ZM18.16 135.002C17.4987 135.002 16.9013 134.884 16.368 134.65C15.824 134.415 15.3973 134.106 15.088 133.722C14.768 133.338 14.528 132.922 14.368 132.474C14.1973 132.026 14.112 131.572 14.112 131.114C14.112 130.527 14.2027 129.999 14.384 129.53C14.5653 129.05 14.8107 128.666 15.12 128.378C15.4293 128.09 15.7867 127.855 16.192 127.674C16.5973 127.492 17.024 127.396 17.472 127.386C17.9093 127.375 18.352 127.412 18.8 127.498L18.8 133.274C19.4507 133.188 19.9413 132.868 20.272 132.314C20.592 131.759 20.752 131.098 20.752 130.33C20.752 129.455 20.5707 128.644 20.208 127.898L21.68 127.898C22.032 128.634 22.208 129.551 22.208 130.65C22.208 131.898 21.856 132.938 21.152 133.77C20.448 134.591 19.4507 135.002 18.16 135.002ZM17.52 129.034C17.0827 128.97 16.6453 129.103 16.208 129.434C15.76 129.754 15.536 130.287 15.536 131.034C15.536 131.642 15.712 132.164 16.064 132.602C16.416 133.028 16.9013 133.258 17.52 133.29L17.52 129.034ZM21.136 125.02C20.4213 125.831 19.4293 126.236 18.16 126.236C16.8907 126.236 15.8987 125.831 15.184 125.02C14.4693 124.199 14.112 123.217 14.112 122.076C14.112 120.924 14.4693 119.943 15.184 119.132C15.8987 118.321 16.8907 117.916 18.16 117.916C19.4293 117.916 20.4213 118.321 21.136 119.132C21.8507 119.943 22.208 120.924 22.208 122.076C22.208 123.217 21.8507 124.199 21.136 125.02ZM19.968 120.332C19.5093 119.884 18.9067 119.66 18.16 119.66C17.4133 119.66 16.816 119.884 16.368 120.332C15.9093 120.78 15.68 121.361 15.68 122.076C15.68 122.801 15.9093 123.388 16.368 123.836C16.816 124.284 17.4133 124.508 18.16 124.508C18.9067 124.508 19.5093 124.284 19.968 123.836C20.416 123.388 20.64 122.801 20.64 122.076C20.64 121.361 20.416 120.78 19.968 120.332Z" fill="black"/>
<path d="M17.5 82L24.8612 94.75H10.1388L17.5 82Z" fill="#379C26"/>
</svg>
